<svg xmlns="http://www.w3.org/2000/svg" viewBox="0 0 500 500"><g id="freepik--background-simple--inject-71"><path d="M308.37,179.75c43,11.63,81,8.34,107.73,51.61,25.27,40.92,12.95,75.77-21,104.83-88.59,75.9-156.56-27.36-254.17-47.13C55.91,271.82,46.42,131.62,126.5,85.9c25.81-14.73,74.67-27.37,100.42-5.25C263,111.65,249.26,163.78,308.37,179.75Z" style="fill:#407BFF"></path><path d="M308.37,179.75c43,11.63,81,8.34,107.73,51.61,25.27,40.92,12.95,75.77-21,104.83-88.59,75.9-156.56-27.36-254.17-47.13C55.91,271.82,46.42,131.62,126.5,85.9c25.81-14.73,74.67-27.37,100.42-5.25C263,111.65,249.26,163.78,308.37,179.75Z" style="fill:#fff;opacity:0.9"></path></g><g id="freepik--Shadow--inject-71"><ellipse id="freepik--path--inject-71" cx="250" cy="416.24" rx="193.89" ry="11.32" style="fill:#f5f5f5"></ellipse></g><g id="freepik--error-404--inject-71"><path d="M136.11,390.75H81.78A4.83,4.83,0,0,1,77,385.92V363.63a4.84,4.84,0,0,1,1.14-3.11l61.4-73a4.84,4.84,0,0,1,3.7-1.72h23.53a4.83,4.83,0,0,1,4.83,4.83v68a4.83,4.83,0,0,0,4.83,4.83h6.21a4.83,4.83,0,0,1,4.83,4.83v17.59a4.83,4.83,0,0,1-4.83,4.83h-6.21a4.83,4.83,0,0,0-4.83,4.83v14a4.83,4.83,0,0,1-4.83,4.83H145.77a4.83,4.83,0,0,1-4.83-4.83v-14A4.83,4.83,0,0,0,136.11,390.75Zm4.83-30.63v-27.2a3.38,3.38,0,0,0-6-2.19l-23.11,27.2a3.38,3.38,0,0,0,2.57,5.57h23.12A3.38,3.38,0,0,0,140.94,360.12Z" style="fill:#263238"></path><path d="M198.37,350.66q0-36,13-50.45t39.53-14.4q12.76,0,21,3.15a38.73,38.73,0,0,1,13.36,8.19,43.62,43.62,0,0,1,8.15,10.6,55.21,55.21,0,0,1,4.79,13,121,121,0,0,1,3.54,29.49q0,34.41-11.65,50.36t-40.09,16q-16,0-25.79-5.09A41.73,41.73,0,0,1,208,396.53q-4.58-7-7.12-19.1A131,131,0,0,1,198.37,350.66Zm34.84.08q0,24.15,4.27,33t12.37,8.85a13,13,0,0,0,9.27-3.76q3.93-3.75,5.78-11.86t1.85-25.26q0-25.17-4.27-33.84t-12.8-8.67q-8.72,0-12.59,8.84T233.21,350.74Z" style="fill:#263238"></path><path d="M371.69,390.75H317.37a4.83,4.83,0,0,1-4.83-4.83V363.63a4.84,4.84,0,0,1,1.13-3.11l61.41-73a4.82,4.82,0,0,1,3.69-1.72h23.54a4.83,4.83,0,0,1,4.83,4.83v68A4.83,4.83,0,0,0,412,363.5h6.2a4.83,4.83,0,0,1,4.83,4.83v17.59a4.83,4.83,0,0,1-4.83,4.83H412a4.83,4.83,0,0,0-4.83,4.83v14a4.83,4.83,0,0,1-4.83,4.83h-21a4.83,4.83,0,0,1-4.83-4.83v-14A4.83,4.83,0,0,0,371.69,390.75Zm4.83-30.63v-27.2a3.38,3.38,0,0,0-5.95-2.19l-23.12,27.2A3.38,3.38,0,0,0,350,363.5h23.11A3.38,3.38,0,0,0,376.52,360.12Z" style="fill:#263238"></path><path d="M157.82,298.88c-.93,2-1.91,3.8-2.86,5.66l-2.8,5.55-2.8,5.57c-.94,1.87-1.91,3.74-3.06,5.58a28.65,28.65,0,0,1,1.23-6.31,36.91,36.91,0,0,1,2.37-6,34.49,34.49,0,0,1,3.4-5.48A23.17,23.17,0,0,1,157.82,298.88Z" style="fill:#fff"></path><path d="M161.38,303.58c-.87,1.73-1.77,3.36-2.65,5l-2.59,4.9-2.59,4.92c-.87,1.65-1.76,3.31-2.82,4.93a25.81,25.81,0,0,1,1.19-5.61,33.57,33.57,0,0,1,2.21-5.29,29.48,29.48,0,0,1,3.13-4.82A20.44,20.44,0,0,1,161.38,303.58Z" style="fill:#fff"></path><path d="M151.66,296.91c-.77,1.8-1.59,3.49-2.39,5.19l-2.35,5.09-2.35,5.1c-.8,1.71-1.61,3.43-2.59,5.12a25.5,25.5,0,0,1,.93-5.72,32.18,32.18,0,0,1,2-5.45,31,31,0,0,1,2.89-5A21.29,21.29,0,0,1,151.66,296.91Z" style="fill:#fff"></path><path d="M381,372.91a23.45,23.45,0,0,1,4.52,4.6A34.77,34.77,0,0,1,389,383a37.43,37.43,0,0,1,2.36,6,29.26,29.26,0,0,1,1.24,6.31c-1.16-1.84-2.12-3.71-3.07-5.58l-2.8-5.57-2.8-5.55C382.94,376.71,382,374.87,381,372.91Z" style="fill:#fff"></path><path d="M377.48,377.61a20.88,20.88,0,0,1,4.11,4,29.34,29.34,0,0,1,3.13,4.83,31.79,31.79,0,0,1,2.21,5.29,25.25,25.25,0,0,1,1.2,5.61c-1.06-1.62-1.95-3.28-2.83-4.93l-2.59-4.92-2.59-4.9C379.24,381,378.34,379.34,377.48,377.61Z" style="fill:#fff"></path><path d="M387.19,370.94a21.34,21.34,0,0,1,3.92,4.3,30.27,30.27,0,0,1,2.88,5,33.11,33.11,0,0,1,2,5.45,26.08,26.08,0,0,1,.93,5.72c-1-1.7-1.8-3.41-2.59-5.12l-2.35-5.11-2.35-5.08C388.79,374.43,388,372.74,387.19,370.94Z" style="fill:#fff"></path></g><g id="freepik--Error--inject-71"><path d="M299.12,401.62H312.4V405h-8.31v2.55h7.71v3.27h-7.71V414h8.55v3.63H299.12Z" style="fill:#407BFF"></path><path d="M312.64,419.59H299.12a1.93,1.93,0,0,1-1.93-1.93v-16a1.92,1.92,0,0,1,1.93-1.93H312.4a1.92,1.92,0,0,1,1.93,1.93V405a1.93,1.93,0,0,0-.6,2.55v3.27a1.94,1.94,0,0,0,.84,3.17v3.63A1.93,1.93,0,0,1,312.64,419.59Zm-11.59-3.86h2.13a1.91,1.91,0,0,1-1-1.7v-3.17a1.94,1.94,0,0,0,0-3.27V405a1.92,1.92,0,0,1,.71-1.49h-1.82Z" style="fill:#407BFF"></path><path d="M315.38,417.66v-16h8.26a12.11,12.11,0,0,1,3.51.39,3.71,3.71,0,0,1,2,1.46,4.52,4.52,0,0,1-1.39,6.47,5.85,5.85,0,0,1-1.74.64,5,5,0,0,1,1.29.59,4.77,4.77,0,0,1,.79.84,7.06,7.06,0,0,1,.7,1l2.4,4.65h-5.6l-2.65-4.9a3.8,3.8,0,0,0-.9-1.24,2.06,2.06,0,0,0-1.21-.37h-.44v6.51Zm5-9.54h2.09a8.25,8.25,0,0,0,1.31-.22,1.31,1.31,0,0,0,.81-.51,1.63,1.63,0,0,0-.18-2.12,3,3,0,0,0-1.85-.41h-2.18Z" style="fill:#407BFF"></path><path d="M331.16,419.59h-5.6a1.94,1.94,0,0,1-1.7-1l-1.57-2.92v2a1.94,1.94,0,0,1-1.93,1.93h-5a1.93,1.93,0,0,1-1.93-1.93v-16a1.92,1.92,0,0,1,1.93-1.93h8.26a13.61,13.61,0,0,1,4.11.49,5.63,5.63,0,0,1,2.94,2.19,6.29,6.29,0,0,1,1.09,3.7,6.42,6.42,0,0,1-.83,3.28,6.11,6.11,0,0,1-1.3,1.56,7.56,7.56,0,0,1,.83,1.24l2.39,4.62a1.93,1.93,0,0,1-1.71,2.82Zm-4.45-3.86H328L327,413.9a3.51,3.51,0,0,0-.48-.68,5.64,5.64,0,0,0-.45-.51h0a3.78,3.78,0,0,0-.74-.3,2,2,0,0,1-.67-.39Zm-9.4,0h1.12v-4.58a1.93,1.93,0,0,1,.74-1.52,1.91,1.91,0,0,1-.74-1.51v-3.26a1.94,1.94,0,0,1,.51-1.31h-1.63Zm5.86-5.75a4.18,4.18,0,0,1,.93,1,2.15,2.15,0,0,1-.05-.51,2.12,2.12,0,0,1,.18-.71l-.09,0C323.76,409.88,323.44,409.94,323.17,410Zm2.23-6.35.23.17a3.33,3.33,0,0,1,1.18,2.66,3.4,3.4,0,0,1-.7,2.09,2.39,2.39,0,0,0,.61-.26,2.59,2.59,0,0,0,.91-.89,2.62,2.62,0,0,0,.3-1.33,2.5,2.5,0,0,0-.4-1.49,1.82,1.82,0,0,0-1-.74A6.48,6.48,0,0,0,325.4,403.63ZM323.34,406h0Z" style="fill:#407BFF"></path><path d="M332.81,417.66v-16h8.26a12.14,12.14,0,0,1,3.52.39,3.69,3.69,0,0,1,2,1.46,4.52,4.52,0,0,1-1.39,6.47,5.85,5.85,0,0,1-1.74.64,5,5,0,0,1,1.29.59,4.72,4.72,0,0,1,.8.84,7.7,7.7,0,0,1,.69,1l2.4,4.65H343l-2.65-4.9a3.66,3.66,0,0,0-.9-1.24,2,2,0,0,0-1.21-.37h-.44v6.51Zm5-9.54h2.09a8.08,8.08,0,0,0,1.31-.22,1.31,1.31,0,0,0,.81-.51,1.45,1.45,0,0,0,.31-.93,1.48,1.48,0,0,0-.49-1.19,3,3,0,0,0-1.85-.41h-2.18Z" style="fill:#407BFF"></path><path d="M348.59,419.59H343a1.94,1.94,0,0,1-1.7-1l-1.57-2.92v2a1.93,1.93,0,0,1-1.93,1.93h-5a1.94,1.94,0,0,1-1.93-1.93v-16a1.93,1.93,0,0,1,1.93-1.93h8.26a13.57,13.57,0,0,1,4.11.49,5.61,5.61,0,0,1,2.95,2.19,6.82,6.82,0,0,1,.25,7,6.28,6.28,0,0,1-1.29,1.56,8.28,8.28,0,0,1,.83,1.24l2.38,4.62a1.93,1.93,0,0,1-1.71,2.82Zm-4.45-3.86h1.29l-.95-1.83a5,5,0,0,0-.49-.68,3.28,3.28,0,0,0-.45-.51h0a3.78,3.78,0,0,0-.74-.3,2,2,0,0,1-.66-.39Zm-9.4,0h1.12v-4.58a1.93,1.93,0,0,1,.74-1.52,1.91,1.91,0,0,1-.74-1.51v-3.26a1.91,1.91,0,0,1,.52-1.31h-1.64ZM340.6,410a4.18,4.18,0,0,1,.93,1,1.73,1.73,0,0,1,0-.51,1.9,1.9,0,0,1,.17-.71l-.08,0C341.19,409.88,340.87,409.94,340.6,410Zm2.24-6.35.22.17a3.33,3.33,0,0,1,1.18,2.66,3.4,3.4,0,0,1-.7,2.09,2.52,2.52,0,0,0,.62-.26,2.56,2.56,0,0,0,.9-.89,2.62,2.62,0,0,0,.3-1.33,2.5,2.5,0,0,0-.4-1.49,1.82,1.82,0,0,0-1-.74A6.51,6.51,0,0,0,342.84,403.63ZM340.77,406h0Z" style="fill:#407BFF"></path><path d="M349.17,409.65a7.6,7.6,0,0,1,8.29-8.31,8.41,8.41,0,0,1,6.17,2.15,8.14,8.14,0,0,1,2.16,6,9.9,9.9,0,0,1-.94,4.61,6.78,6.78,0,0,1-2.74,2.8,9,9,0,0,1-4.46,1,10.36,10.36,0,0,1-4.49-.86,6.71,6.71,0,0,1-2.88-2.74A9.06,9.06,0,0,1,349.17,409.65Zm5,0a5.39,5.39,0,0,0,.9,3.49,3.42,3.42,0,0,0,4.93,0,5.93,5.93,0,0,0,.88-3.73,5,5,0,0,0-.92-3.31,3.14,3.14,0,0,0-2.48-1,3,3,0,0,0-2.4,1.06A5.37,5.37,0,0,0,354.13,409.67Z" style="fill:#407BFF"></path><path d="M357.65,419.86a12.2,12.2,0,0,1-5.33-1.06,8.57,8.57,0,0,1-3.7-3.49,10.89,10.89,0,0,1-1.38-5.66A10.64,10.64,0,0,1,365,402.13a10,10,0,0,1,2.74,7.39,11.76,11.76,0,0,1-1.17,5.51,8.62,8.62,0,0,1-3.5,3.58A10.92,10.92,0,0,1,357.65,419.86ZM359,403.37a4.84,4.84,0,0,1,2.38,1.5,6.67,6.67,0,0,1,1.39,4.58c0,2.29-.43,3.91-1.32,5a4.79,4.79,0,0,1-2.16,1.46,5.68,5.68,0,0,0,1.89-.63,4.85,4.85,0,0,0,2-2,8,8,0,0,0,.73-3.71,6.26,6.26,0,0,0-1.6-4.66A5.63,5.63,0,0,0,359,403.37Zm-3.09,0a5.51,5.51,0,0,0-3.18,1.52,6.38,6.38,0,0,0-1.62,4.75,7.19,7.19,0,0,0,.84,3.7,4.77,4.77,0,0,0,2.06,2,6.34,6.34,0,0,0,1.61.51,4.87,4.87,0,0,1-2.05-1.43,8.95,8.95,0,0,1,0-9.5A4.84,4.84,0,0,1,355.9,403.38Zm1.54,3.65a1.09,1.09,0,0,0-.94.38,3.71,3.71,0,0,0-.44,2.26,3.64,3.64,0,0,0,.44,2.24,1.14,1.14,0,0,0,1,.38c.7,0,.9-.23,1-.35s.42-.56.42-2.49a3.16,3.16,0,0,0-.44-2A1.22,1.22,0,0,0,357.44,407Z" style="fill:#407BFF"></path><path d="M368.53,417.66v-16h8.26a12.11,12.11,0,0,1,3.51.39,3.71,3.71,0,0,1,2,1.46,4.52,4.52,0,0,1-1.39,6.47,5.85,5.85,0,0,1-1.74.64,5,5,0,0,1,1.29.59,4.77,4.77,0,0,1,.79.84,7.06,7.06,0,0,1,.7,1l2.4,4.65h-5.6l-2.65-4.9a3.8,3.8,0,0,0-.9-1.24,2.06,2.06,0,0,0-1.21-.37h-.44v6.51Zm5-9.54h2.09a8.25,8.25,0,0,0,1.31-.22,1.31,1.31,0,0,0,.81-.51,1.63,1.63,0,0,0-.18-2.12,3,3,0,0,0-1.85-.41h-2.18Z" style="fill:#407BFF"></path><path d="M384.31,419.59h-5.6a1.94,1.94,0,0,1-1.7-1l-1.57-2.92v2a1.94,1.94,0,0,1-1.93,1.93h-5a1.93,1.93,0,0,1-1.93-1.93v-16a1.92,1.92,0,0,1,1.93-1.93h8.26a13.61,13.61,0,0,1,4.11.49,5.63,5.63,0,0,1,2.94,2.19,6.29,6.29,0,0,1,1.1,3.7,6.4,6.4,0,0,1-.84,3.28,6.11,6.11,0,0,1-1.3,1.56,7.56,7.56,0,0,1,.83,1.24l2.39,4.62a1.93,1.93,0,0,1-1.71,2.82Zm-4.45-3.86h1.28l-.94-1.83a5,5,0,0,0-.49-.68,5.64,5.64,0,0,0-.45-.51h0a3.78,3.78,0,0,0-.74-.3,2,2,0,0,1-.67-.39Zm-9.4,0h1.12v-4.58a1.93,1.93,0,0,1,.74-1.52,1.91,1.91,0,0,1-.74-1.51v-3.26a1.9,1.9,0,0,1,.51-1.31h-1.63Zm5.86-5.75a4.18,4.18,0,0,1,.93,1,1.73,1.73,0,0,1,0-.51,1.9,1.9,0,0,1,.17-.71l-.09,0C376.91,409.88,376.59,409.94,376.32,410Zm2.24-6.35.22.17a3.33,3.33,0,0,1,1.18,2.66,3.4,3.4,0,0,1-.7,2.09,2.58,2.58,0,0,0,1.51-1.15,3,3,0,0,0-.09-2.82,1.82,1.82,0,0,0-1-.74A6.51,6.51,0,0,0,378.56,403.63Zm-2.09,3.23Zm0-.84h0Z" style="fill:#407BFF"></path><path d="M299.12,401.62H312.4V405h-8.31v2.55h7.71v3.27h-7.71V414h8.55v3.63H299.12Z" style="fill:#fff"></path><path d="M315.38,417.66v-16h8.26a12.11,12.11,0,0,1,3.51.39,3.71,3.71,0,0,1,2,1.46,4.52,4.52,0,0,1-1.39,6.47,5.85,5.85,0,0,1-1.74.64,5,5,0,0,1,1.29.59,4.77,4.77,0,0,1,.79.84,7.06,7.06,0,0,1,.7,1l2.4,4.65h-5.6l-2.65-4.9a3.8,3.8,0,0,0-.9-1.24,2.06,2.06,0,0,0-1.21-.37h-.44v6.51Zm5-9.54h2.09a8.25,8.25,0,0,0,1.31-.22,1.31,1.31,0,0,0,.81-.51,1.63,1.63,0,0,0-.18-2.12,3,3,0,0,0-1.85-.41h-2.18Z" style="fill:#fff"></path><path d="M332.81,417.66v-16h8.26a12.14,12.14,0,0,1,3.52.39,3.69,3.69,0,0,1,2,1.46,4.52,4.52,0,0,1-1.39,6.47,5.85,5.85,0,0,1-1.74.64,5,5,0,0,1,1.29.59,4.72,4.72,0,0,1,.8.84,7.7,7.7,0,0,1,.69,1l2.4,4.65H343l-2.65-4.9a3.66,3.66,0,0,0-.9-1.24,2,2,0,0,0-1.21-.37h-.44v6.51Zm5-9.54h2.09a8.08,8.08,0,0,0,1.31-.22,1.31,1.31,0,0,0,.81-.51,1.45,1.45,0,0,0,.31-.93,1.48,1.48,0,0,0-.49-1.19,3,3,0,0,0-1.85-.41h-2.18Z" style="fill:#fff"></path><path d="M349.17,409.65a7.6,7.6,0,0,1,8.29-8.31,8.41,8.41,0,0,1,6.17,2.15,8.14,8.14,0,0,1,2.16,6,9.9,9.9,0,0,1-.94,4.61,6.78,6.78,0,0,1-2.74,2.8,9,9,0,0,1-4.46,1,10.36,10.36,0,0,1-4.49-.86,6.71,6.71,0,0,1-2.88-2.74A9.06,9.06,0,0,1,349.17,409.65Zm5,0a5.39,5.39,0,0,0,.9,3.49,3.42,3.42,0,0,0,4.93,0,5.93,5.93,0,0,0,.88-3.73,5,5,0,0,0-.92-3.31,3.14,3.14,0,0,0-2.48-1,3,3,0,0,0-2.4,1.06A5.37,5.37,0,0,0,354.13,409.67Z" style="fill:#fff"></path><path d="M368.53,417.66v-16h8.26a12.11,12.11,0,0,1,3.51.39,3.71,3.71,0,0,1,2,1.46,4.52,4.52,0,0,1-1.39,6.47,5.85,5.85,0,0,1-1.74.64,5,5,0,0,1,1.29.59,4.77,4.77,0,0,1,.79.84,7.06,7.06,0,0,1,.7,1l2.4,4.65h-5.6l-2.65-4.9a3.8,3.8,0,0,0-.9-1.24,2.06,2.06,0,0,0-1.21-.37h-.44v6.51Zm5-9.54h2.09a8.25,8.25,0,0,0,1.31-.22,1.31,1.31,0,0,0,.81-.51,1.63,1.63,0,0,0-.18-2.12,3,3,0,0,0-1.85-.41h-2.18Z" style="fill:#fff"></path></g><g id="freepik--ball-of-yarn--inject-71"><circle cx="202.29" cy="394.69" r="22.97" transform="translate(-224.74 274.91) rotate(-47.2)" style="fill:#407BFF"></circle><path d="M266.75,418.62c-11.38,0-15.4-4.31-19.28-8.47a33.43,33.43,0,0,0-4.21-4c-5.82-4.44-15-6.47-19.63-4.34a1,1,0,0,1-.81-1.75c5.3-2.43,15.19-.34,21.61,4.55a36.26,36.26,0,0,1,4.46,4.25c3.76,4.05,7.32,7.87,17.86,7.87a14.25,14.25,0,0,0,12.74-7.16,11.52,11.52,0,0,0,.15-11.64c-2.39-3.85-7.31-5.81-13.87-5.5a1,1,0,1,1-.09-1.93c7.29-.33,12.83,1.94,15.6,6.41a13.48,13.48,0,0,1-.1,13.6A16.15,16.15,0,0,1,266.75,418.62Z" style="fill:#407BFF"></path><path d="M212,412.2a51,51,0,0,1-32.91-12.48,1,1,0,0,1,1.28-1.44c8,7.14,22.28,13.9,38.21,11.5a1,1,0,1,1,.29,1.91A46.26,46.26,0,0,1,212,412.2Z" style="fill:#407BFF"></path><path d="M209.48,415.06c-11.79,0-21.86-4.64-30.65-14.1a1,1,0,0,1,0-1.36,1,1,0,0,1,1.37,0c9.73,10.48,21.1,14.77,34.75,13.15a1,1,0,1,1,.23,1.91A47.29,47.29,0,0,1,209.48,415.06Z" style="fill:#407BFF"></path><path d="M192.06,416.22a1,1,0,0,1-1-.9c-.84-11.28,3.05-29.24,13.61-43.93a1,1,0,0,1,1.57,1.12C196,386.82,192.21,404.25,193,415.18a1,1,0,0,1-.89,1Z" style="fill:#407BFF"></path><path d="M182.47,407.27a1,1,0,0,1-.52-.15,1,1,0,0,1-.3-1.33c3.36-5.31,15.84-23.12,35.4-29.37a1,1,0,0,1,1.21.62,1,1,0,0,1-.62,1.21c-18.94,6.06-31.09,23.4-34.36,28.57A1,1,0,0,1,182.47,407.27Z" style="fill:#407BFF"></path><path d="M182.47,407.27a.92.92,0,0,1-.36-.07,1,1,0,0,1-.54-1.25,55.26,55.26,0,0,1,33-31.36,1,1,0,0,1,.64,1.82,53.33,53.33,0,0,0-31.88,30.26A1,1,0,0,1,182.47,407.27Z" style="fill:#407BFF"></path><path d="M189.21,414.54a1,1,0,0,1-1-.86c-2.42-20.84,4.42-32.76,12.18-42.53a1,1,0,0,1,1.35-.16,1,1,0,0,1,.16,1.36c-7.5,9.45-14.11,21-11.77,41.11a1,1,0,0,1-.85,1.07Z" style="fill:#407BFF"></path><path d="M186.53,412.36a1,1,0,0,1-.93-.7c-3-11.05-.77-28.33,11.47-40.18a1,1,0,0,1,1.36,0,1,1,0,0,1,0,1.37c-11.15,10.79-13.95,27.42-10.95,38.27a1,1,0,0,1-.67,1.19Z" style="fill:#407BFF"></path><path d="M225,398.86a1,1,0,0,1-.56-.18c-14.3-10.29-31.74-14.08-42.67-13.26a1,1,0,0,1-.14-1.93c11.28-.83,29.24,3.05,43.94,13.62a1,1,0,0,1-.57,1.75Z" style="fill:#407BFF"></path><path d="M225.2,396.19a.88.88,0,0,1-.39-.08c-12.82-5.69-32.22-6.44-45.12-1.76a1,1,0,1,1-.66-1.81c13.32-4.84,33.33-4.06,46.56,1.81a1,1,0,0,1,.49,1.27A1,1,0,0,1,225.2,396.19Z" style="fill:#407BFF"></path><path d="M225.16,393.49a1,1,0,0,1-.71-.31c-9.51-10.34-21.83-14-40-11.91a1,1,0,1,1-.23-1.91c18.56-2.16,31.78,1.82,41.61,12.52a1,1,0,0,1-.71,1.61Z" style="fill:#407BFF"></path><path d="M224.44,389.57a1,1,0,0,1-.68-.29c-11.89-11.86-28.66-13.57-36.25-11a1,1,0,0,1-.62-1.83c8.05-2.73,25.77-1,38.23,11.46a1,1,0,0,1,0,1.36A1,1,0,0,1,224.44,389.57Z" style="fill:#407BFF"></path><path d="M220,410.31a.84.84,0,0,1-.27,0c-23-6.81-39.91-22.27-40.07-22.43a1,1,0,0,1,1.3-1.42c.17.16,16.77,15.32,39.32,22a1,1,0,0,1-.28,1.89Z" style="fill:#407BFF"></path><path d="M220.46,409.72a1,1,0,0,1-.38-.08,255.59,255.59,0,0,1-39.84-22.25,1,1,0,1,1,1.11-1.57,253.23,253.23,0,0,0,39.49,22.05,1,1,0,0,1-.38,1.85Z" style="fill:#407BFF"></path><path d="M221.31,408.53a.91.91,0,0,1-.45-.11c-19.67-10.58-40.29-20.85-40.49-20.95a1,1,0,0,1,.85-1.73c.21.1,20.86,10.39,40.55,21a1,1,0,0,1-.46,1.81Z" style="fill:#407BFF"></path><path d="M222,407.47a.92.92,0,0,1-.59-.2c-17.86-14-40.31-20.5-40.54-20.56a1,1,0,0,1,.53-1.86c.23.07,23,6.65,41.2,20.9a1,1,0,0,1,.16,1.35A.94.94,0,0,1,222,407.47Z" style="fill:#407BFF"></path><path d="M223.84,403.59a1,1,0,0,1-.61-.21c-16.36-13.44-42-16.61-42.22-16.64a1,1,0,0,1,.23-1.92c.26,0,26.41,3.27,43.22,17.07a1,1,0,0,1,.13,1.35A1,1,0,0,1,223.84,403.59Z" style="fill:#407BFF"></path><path d="M193.69,417a1,1,0,0,1-.56-1.74c18.23-13.19,28.64-31.49,28.74-31.67a1,1,0,1,1,1.68.95c-.1.18-10.72,18.85-29.29,32.28A1,1,0,0,1,193.69,417Z" style="fill:#407BFF"></path><g style="opacity:0.30000000000000004"><path d="M212,412.2a51,51,0,0,1-32.91-12.48,1,1,0,0,1,1.28-1.44c8,7.14,22.28,13.9,38.21,11.5a1,1,0,1,1,.29,1.91A46.26,46.26,0,0,1,212,412.2Z"></path><path d="M209.48,415.06c-11.79,0-21.86-4.64-30.65-14.1a1,1,0,0,1,0-1.36,1,1,0,0,1,1.37,0c9.73,10.48,21.1,14.77,34.75,13.15a1,1,0,1,1,.23,1.91A47.29,47.29,0,0,1,209.48,415.06Z"></path><path d="M192.06,416.22a1,1,0,0,1-1-.9c-.84-11.28,3.05-29.24,13.61-43.93a1,1,0,0,1,1.57,1.12C196,386.82,192.21,404.25,193,415.18a1,1,0,0,1-.89,1Z"></path><path d="M182.47,407.27a1,1,0,0,1-.52-.15,1,1,0,0,1-.3-1.33c3.36-5.31,15.84-23.12,35.4-29.37a1,1,0,0,1,1.21.62,1,1,0,0,1-.62,1.21c-18.94,6.06-31.09,23.4-34.36,28.57A1,1,0,0,1,182.47,407.27Z"></path><path d="M182.47,407.27a.92.92,0,0,1-.36-.07,1,1,0,0,1-.54-1.25,55.26,55.26,0,0,1,33-31.36,1,1,0,0,1,.64,1.82,53.33,53.33,0,0,0-31.88,30.26A1,1,0,0,1,182.47,407.27Z"></path><path d="M189.21,414.54a1,1,0,0,1-1-.86c-2.42-20.84,4.42-32.76,12.18-42.53a1,1,0,0,1,1.35-.16,1,1,0,0,1,.16,1.36c-7.5,9.45-14.11,21-11.77,41.11a1,1,0,0,1-.85,1.07Z"></path><path d="M186.53,412.36a1,1,0,0,1-.93-.7c-3-11.05-.77-28.33,11.47-40.18a1,1,0,0,1,1.36,0,1,1,0,0,1,0,1.37c-11.15,10.79-13.95,27.42-10.95,38.27a1,1,0,0,1-.67,1.19Z"></path><path d="M225,398.86a1,1,0,0,1-.56-.18c-14.3-10.29-31.74-14.08-42.67-13.26a1,1,0,0,1-.14-1.93c11.28-.83,29.24,3.05,43.94,13.62a1,1,0,0,1-.57,1.75Z"></path><path d="M225.2,396.19a.88.88,0,0,1-.39-.08c-12.82-5.69-32.22-6.44-45.12-1.76a1,1,0,1,1-.66-1.81c13.32-4.84,33.33-4.06,46.56,1.81a1,1,0,0,1,.49,1.27A1,1,0,0,1,225.2,396.19Z"></path><path d="M225.16,393.49a1,1,0,0,1-.71-.31c-9.51-10.34-21.83-14-40-11.91a1,1,0,1,1-.23-1.91c18.56-2.16,31.78,1.82,41.61,12.52a1,1,0,0,1-.71,1.61Z"></path><path d="M224.44,389.57a1,1,0,0,1-.68-.29c-11.89-11.86-28.66-13.57-36.25-11a1,1,0,0,1-.62-1.83c8.05-2.73,25.77-1,38.23,11.46a1,1,0,0,1,0,1.36A1,1,0,0,1,224.44,389.57Z"></path><path d="M220,410.31a.84.84,0,0,1-.27,0c-23-6.81-39.91-22.27-40.07-22.43a1,1,0,0,1,1.3-1.42c.17.16,16.77,15.32,39.32,22a1,1,0,0,1-.28,1.89Z"></path><path d="M220.46,409.72a1,1,0,0,1-.38-.08,255.59,255.59,0,0,1-39.84-22.25,1,1,0,1,1,1.11-1.57,253.23,253.23,0,0,0,39.49,22.05,1,1,0,0,1-.38,1.85Z"></path><path d="M221.31,408.53a.91.91,0,0,1-.45-.11c-19.67-10.58-40.29-20.85-40.49-20.95a1,1,0,0,1,.85-1.73c.21.1,20.86,10.39,40.55,21a1,1,0,0,1-.46,1.81Z"></path><path d="M222,407.47a.92.92,0,0,1-.59-.2c-17.86-14-40.31-20.5-40.54-20.56a1,1,0,0,1,.53-1.86c.23.07,23,6.65,41.2,20.9a1,1,0,0,1,.16,1.35A.94.94,0,0,1,222,407.47Z"></path><path d="M223.84,403.59a1,1,0,0,1-.61-.21c-16.36-13.44-42-16.61-42.22-16.64a1,1,0,0,1,.23-1.92c.26,0,26.41,3.27,43.22,17.07a1,1,0,0,1,.13,1.35A1,1,0,0,1,223.84,403.59Z"></path><path d="M193.69,417a1,1,0,0,1-.56-1.74c18.23-13.19,28.64-31.49,28.74-31.67a1,1,0,1,1,1.68.95c-.1.18-10.72,18.85-29.29,32.28A1,1,0,0,1,193.69,417Z"></path></g></g></svg>